solid stlFromUG4
facet normal -0.401344 0.910482 0.0997285
outer loop
vertex -0.525731 0.850651 0
vertex -0.433889 0.862668 0.259892
vertex -0.273267 0.961938 0
endloop
endfacet
facet normal -0.293384 0.889128 0.351251
outer loop
vertex -0.309017 0.809017 0.5
vertex -0.16246 0.951057 0.262866
vertex -0.433889 0.862668 0.259892
endloop
endfacet
facet normal -0.137279 0.985606 0.0986689
outer loop
vertex 0 1 0
vertex -0.273267 0.961938 0
vertex -0.16246 0.951057 0.262866
endloop
endfacet
facet normal -0.306893 0.936773 0.168145
outer loop
vertex -0.433889 0.862668 0.259892
vertex -0.16246 0.951057 0.262866
vertex -0.273267 0.961938 0
endloop
endfacet
facet normal 0 0.662437 0.749118
outer loop
vertex 0 0.525731 0.850651
vertex 0.160622 0.69378 0.702046
vertex -0.160622 0.69378 0.702046
endloop
endfacet
facet normal 0.156105 0.804285 0.573374
outer loop
vertex 0.309017 0.809017 0.5
vertex 0 0.850651 0.525731
vertex 0.160622 0.69378 0.702046
endloop
endfacet
facet normal -0.156105 0.804285 0.573374
outer loop
vertex -0.309017 0.809017 0.5
vertex -0.160622 0.69378 0.702046
vertex 0 0.850651 0.525731
endloop
endfacet
facet normal 0 0.747103 0.664708
outer loop
vertex 0.160622 0.69378 0.702046
vertex 0 0.850651 0.525731
vertex -0.160622 0.69378 0.702046
endloop
endfacet
facet normal 0.401344 0.910482 0.0997285
outer loop
vertex 0.525731 0.850651 0
vertex 0.273267 0.961938 0
vertex 0.433889 0.862668 0.259892
endloop
endfacet
facet normal 0.137279 0.985606 0.0986689
outer loop
vertex 0 1 0
vertex 0.16246 0.951057 0.262866
vertex 0.273267 0.961938 0
endloop
endfacet
facet normal 0.293384 0.889128 0.351251
outer loop
vertex 0.309017 0.809017 0.5
vertex 0.433889 0.862668 0.259892
vertex 0.16246 0.951057 0.262866
endloop
endfacet
facet normal 0.306893 0.936773 0.168145
outer loop
vertex 0.273267 0.961938 0
vertex 0.16246 0.951057 0.262866
vertex 0.433889 0.862668 0.259892
endloop
endfacet
facet normal -0.155708 0.886871 0.434988
outer loop
vertex -0.309017 0.809017 0.5
vertex 0 0.850651 0.525731
vertex -0.16246 0.951057 0.262866
endloop
endfacet
facet normal 0.155708 0.886871 0.434988
outer loop
vertex 0.309017 0.809017 0.5
vertex 0.16246 0.951057 0.262866
vertex 0 0.850651 0.525731
endloop
endfacet
facet normal 0 0.983104 0.183046
outer loop
vertex 0 1 0
vertex -0.16246 0.951057 0.262866
vertex 0.16246 0.951057 0.262866
endloop
endfacet
facet normal 0 0.934172 0.356822
outer loop
vertex 0 0.850651 0.525731
vertex 0.16246 0.951057 0.262866
vertex -0.16246 0.951057 0.262866
endloop
endfacet
facet normal -0.401344 0.910482 -0.0997285
outer loop
vertex -0.525731 0.850651 0
vertex -0.273267 0.961938 0
vertex -0.433889 0.862668 -0.259892
endloop
endfacet
facet normal -0.137279 0.985606 -0.0986689
outer loop
vertex 0 1 0
vertex -0.16246 0.951057 -0.262866
vertex -0.273267 0.961938 0
endloop
endfacet
facet normal -0.293384 0.889128 -0.351251
outer loop
vertex -0.309017 0.809017 -0.5
vertex -0.433889 0.862668 -0.259892
vertex -0.16246 0.951057 -0.262866
endloop
endfacet
facet normal -0.306893 0.936773 -0.168145
outer loop
vertex -0.273267 0.961938 0
vertex -0.16246 0.951057 -0.262866
vertex -0.433889 0.862668 -0.259892
endloop
endfacet
facet normal 0.401344 0.910482 -0.0997285
outer loop
vertex 0.525731 0.850651 0
vertex 0.433889 0.862668 -0.259892
vertex 0.273267 0.961938 0
endloop
endfacet
facet normal 0.293384 0.889128 -0.351251
outer loop
vertex 0.309017 0.809017 -0.5
vertex 0.16246 0.951057 -0.262866
vertex 0.433889 0.862668 -0.259892
endloop
endfacet
facet normal 0.137279 0.985606 -0.0986689
outer loop
vertex 0 1 0
vertex 0.273267 0.961938 0
vertex 0.16246 0.951057 -0.262866
endloop
endfacet
facet normal 0.306893 0.936773 -0.168145
outer loop
vertex 0.433889 0.862668 -0.259892
vertex 0.16246 0.951057 -0.262866
vertex 0.273267 0.961938 0
endloop
endfacet
facet normal 0 0.662437 -0.749118
outer loop
vertex 0 0.525731 -0.850651
vertex -0.160622 0.69378 -0.702046
vertex 0.160622 0.69378 -0.702046
endloop
endfacet
facet normal -0.156105 0.804285 -0.573374
outer loop
vertex -0.309017 0.809017 -0.5
vertex 0 0.850651 -0.525731
vertex -0.160622 0.69378 -0.702046
endloop
endfacet
facet normal 0.156105 0.804285 -0.573374
outer loop
vertex 0.309017 0.809017 -0.5
vertex 0.160622 0.69378 -0.702046
vertex 0 0.850651 -0.525731
endloop
endfacet
facet normal 0 0.747103 -0.664708
outer loop
vertex -0.160622 0.69378 -0.702046
vertex 0 0.850651 -0.525731
vertex 0.160622 0.69378 -0.702046
endloop
endfacet
facet normal 0 0.983104 -0.183046
outer loop
vertex 0 1 0
vertex 0.16246 0.951057 -0.262866
vertex -0.16246 0.951057 -0.262866
endloop
endfacet
facet normal 0.155708 0.886871 -0.434988
outer loop
vertex 0.309017 0.809017 -0.5
vertex 0 0.850651 -0.525731
vertex 0.16246 0.951057 -0.262866
endloop
endfacet
facet normal -0.155708 0.886871 -0.434988
outer loop
vertex -0.309017 0.809017 -0.5
vertex -0.16246 0.951057 -0.262866
vertex 0 0.850651 -0.525731
endloop
endfacet
facet normal 0 0.934172 -0.356822
outer loop
vertex 0.16246 0.951057 -0.262866
vertex 0 0.850651 -0.525731
vertex -0.16246 0.951057 -0.262866
endloop
endfacet
facet normal -0.161364 0.562709 -0.810753
outer loop
vertex 0 0.525731 -0.850651
vertex -0.259892 0.433889 -0.862668
vertex -0.160622 0.69378 -0.702046
endloop
endfacet
facet normal -0.412232 0.453033 -0.790459
outer loop
vertex -0.5 0.309017 -0.809017
vertex -0.425325 0.587785 -0.688191
vertex -0.259892 0.433889 -0.862668
endloop
endfacet
facet normal -0.315754 0.705616 -0.634354
outer loop
vertex -0.309017 0.809017 -0.5
vertex -0.160622 0.69378 -0.702046
vertex -0.425325 0.587785 -0.688191
endloop
endfacet
facet normal -0.272065 0.578958 -0.768628
outer loop
vertex -0.259892 0.433889 -0.862668
vertex -0.425325 0.587785 -0.688191
vertex -0.160622 0.69378 -0.702046
endloop
endfacet
facet normal -0.810753 0.161364 -0.562709
outer loop
vertex -0.850651 0 -0.525731
vertex -0.862668 0.259892 -0.433889
vertex -0.702046 0.160622 -0.69378
endloop
endfacet
facet normal -0.790459 0.412232 -0.453033
outer loop
vertex -0.809017 0.5 -0.309017
vertex -0.688191 0.425325 -0.587785
vertex -0.862668 0.259892 -0.433889
endloop
endfacet
facet normal -0.634354 0.315754 -0.705616
outer loop
vertex -0.5 0.309017 -0.809017
vertex -0.702046 0.160622 -0.69378
vertex -0.688191 0.425325 -0.587785
endloop
endfacet
facet normal -0.768628 0.272065 -0.578958
outer loop
vertex -0.862668 0.259892 -0.433889
vertex -0.688191 0.425325 -0.587785
vertex -0.702046 0.160622 -0.69378
endloop
endfacet
facet normal -0.562709 0.810753 -0.161364
outer loop
vertex -0.525731 0.850651 0
vertex -0.433889 0.862668 -0.259892
vertex -0.69378 0.702046 -0.160622
endloop
endfacet
facet normal -0.453033 0.790459 -0.412232
outer loop
vertex -0.309017 0.809017 -0.5
vertex -0.587785 0.688191 -0.425325
vertex -0.433889 0.862668 -0.259892
endloop
endfacet
facet normal -0.705616 0.634354 -0.315754
outer loop
vertex -0.809017 0.5 -0.309017
vertex -0.69378 0.702046 -0.160622
vertex -0.587785 0.688191 -0.425325
endloop
endfacet
facet normal -0.578958 0.768628 -0.272065
outer loop
vertex -0.433889 0.862668 -0.259892
vertex -0.587785 0.688191 -0.425325
vertex -0.69378 0.702046 -0.160622
endloop
endfacet
facet normal -0.548117 0.451883 -0.703825
outer loop
vertex -0.5 0.309017 -0.809017
vertex -0.688191 0.425325 -0.587785
vertex -0.425325 0.587785 -0.688191
endloop
endfacet
facet normal -0.703825 0.548117 -0.451883
outer loop
vertex -0.809017 0.5 -0.309017
vertex -0.587785 0.688191 -0.425325
vertex -0.688191 0.425325 -0.587785
endloop
endfacet
facet normal -0.451883 0.703825 -0.548117
outer loop
vertex -0.309017 0.809017 -0.5
vertex -0.425325 0.587785 -0.688191
vertex -0.587785 0.688191 -0.425325
endloop
endfacet
facet normal -0.57735 0.57735 -0.57735
outer loop
vertex -0.688191 0.425325 -0.587785
vertex -0.587785 0.688191 -0.425325
vertex -0.425325 0.587785 -0.688191
endloop
endfacet
facet normal -0.910482 0.0997285 -0.401344
outer loop
vertex -0.850651 0 -0.525731
vertex -0.961938 0 -0.273267
vertex -0.862668 0.259892 -0.433889
endloop
endfacet
facet normal -0.985606 0.0986689 -0.137279
outer loop
vertex -1 0 0
vertex -0.951057 0.262866 -0.16246
vertex -0.961938 0 -0.273267
endloop
endfacet
facet normal -0.889128 0.351251 -0.293384
outer loop
vertex -0.809017 0.5 -0.309017
vertex -0.862668 0.259892 -0.433889
vertex -0.951057 0.262866 -0.16246
endloop
endfacet
facet normal -0.936773 0.168145 -0.306893
outer loop
vertex -0.961938 0 -0.273267
vertex -0.951057 0.262866 -0.16246
vertex -0.862668 0.259892 -0.433889
endloop
endfacet
facet normal -0.910482 0.0997285 0.401344
outer loop
vertex -0.850651 0 0.525731
vertex -0.862668 0.259892 0.433889
vertex -0.961938 0 0.273267
endloop
endfacet
facet normal -0.889128 0.351251 0.293384
outer loop
vertex -0.809017 0.5 0.309017
vertex -0.951057 0.262866 0.16246
vertex -0.862668 0.259892 0.433889
endloop
endfacet
facet normal -0.985606 0.0986689 0.137279
outer loop
vertex -1 0 0
vertex -0.961938 0 0.273267
vertex -0.951057 0.262866 0.16246
endloop
endfacet
facet normal -0.936773 0.168145 0.306893
outer loop
vertex -0.862668 0.259892 0.433889
vertex -0.951057 0.262866 0.16246
vertex -0.961938 0 0.273267
endloop
endfacet
facet normal -0.662437 0.749118 0
outer loop
vertex -0.525731 0.850651 0
vertex -0.69378 0.702046 -0.160622
vertex -0.69378 0.702046 0.160622
endloop
endfacet
facet normal -0.804285 0.573374 -0.156105
outer loop
vertex -0.809017 0.5 -0.309017
vertex -0.850651 0.525731 0
vertex -0.69378 0.702046 -0.160622
endloop
endfacet
facet normal -0.804285 0.573374 0.156105
outer loop
vertex -0.809017 0.5 0.309017
vertex -0.69378 0.702046 0.160622
vertex -0.850651 0.525731 0
endloop
endfacet
facet normal -0.747103 0.664708 0
outer loop
vertex -0.69378 0.702046 -0.160622
vertex -0.850651 0.525731 0
vertex -0.69378 0.702046 0.160622
endloop
endfacet
facet normal -0.983104 0.183046 0
outer loop
vertex -1 0 0
vertex -0.951057 0.262866 0.16246
vertex -0.951057 0.262866 -0.16246
endloop
endfacet
facet normal -0.886871 0.434988 0.155708
outer loop
vertex -0.809017 0.5 0.309017
vertex -0.850651 0.525731 0
vertex -0.951057 0.262866 0.16246
endloop
endfacet
facet normal -0.886871 0.434988 -0.155708
outer loop
vertex -0.809017 0.5 -0.309017
vertex -0.951057 0.262866 -0.16246
vertex -0.850651 0.525731 0
endloop
endfacet
facet normal -0.934172 0.356822 0
outer loop
vertex -0.951057 0.262866 0.16246
vertex -0.850651 0.525731 0
vertex -0.951057 0.262866 -0.16246
endloop
endfacet
facet normal -0.562709 0.810753 0.161364
outer loop
vertex -0.525731 0.850651 0
vertex -0.69378 0.702046 0.160622
vertex -0.433889 0.862668 0.259892
endloop
endfacet
facet normal -0.705616 0.634354 0.315754
outer loop
vertex -0.809017 0.5 0.309017
vertex -0.587785 0.688191 0.425325
vertex -0.69378 0.702046 0.160622
endloop
endfacet
facet normal -0.453033 0.790459 0.412232
outer loop
vertex -0.309017 0.809017 0.5
vertex -0.433889 0.862668 0.259892
vertex -0.587785 0.688191 0.425325
endloop
endfacet
facet normal -0.578958 0.768628 0.272065
outer loop
vertex -0.69378 0.702046 0.160622
vertex -0.587785 0.688191 0.425325
vertex -0.433889 0.862668 0.259892
endloop
endfacet
facet normal -0.810753 0.161364 0.562709
outer loop
vertex -0.850651 0 0.525731
vertex -0.702046 0.160622 0.69378
vertex -0.862668 0.259892 0.433889
endloop
endfacet
facet normal -0.634354 0.315754 0.705616
outer loop
vertex -0.5 0.309017 0.809017
vertex -0.688191 0.425325 0.587785
vertex -0.702046 0.160622 0.69378
endloop
endfacet
facet normal -0.790459 0.412232 0.453033
outer loop
vertex -0.809017 0.5 0.309017
vertex -0.862668 0.259892 0.433889
vertex -0.688191 0.425325 0.587785
endloop
endfacet
facet normal -0.768628 0.272065 0.578958
outer loop
vertex -0.702046 0.160622 0.69378
vertex -0.688191 0.425325 0.587785
vertex -0.862668 0.259892 0.433889
endloop
endfacet
facet normal -0.161364 0.562709 0.810753
outer loop
vertex 0 0.525731 0.850651
vertex -0.160622 0.69378 0.702046
vertex -0.259892 0.433889 0.862668
endloop
endfacet
facet normal -0.315754 0.705616 0.634354
outer loop
vertex -0.309017 0.809017 0.5
vertex -0.425325 0.587785 0.688191
vertex -0.160622 0.69378 0.702046
endloop
endfacet
facet normal -0.412232 0.453033 0.790459
outer loop
vertex -0.5 0.309017 0.809017
vertex -0.259892 0.433889 0.862668
vertex -0.425325 0.587785 0.688191
endloop
endfacet
facet normal -0.272065 0.578958 0.768628
outer loop
vertex -0.160622 0.69378 0.702046
vertex -0.425325 0.587785 0.688191
vertex -0.259892 0.433889 0.862668
endloop
endfacet
facet normal -0.703825 0.548117 0.451883
outer loop
vertex -0.809017 0.5 0.309017
vertex -0.688191 0.425325 0.587785
vertex -0.587785 0.688191 0.425325
endloop
endfacet
facet normal -0.548117 0.451883 0.703825
outer loop
vertex -0.5 0.309017 0.809017
vertex -0.425325 0.587785 0.688191
vertex -0.688191 0.425325 0.587785
endloop
endfacet
facet normal -0.451883 0.703825 0.548117
outer loop
vertex -0.309017 0.809017 0.5
vertex -0.587785 0.688191 0.425325
vertex -0.425325 0.587785 0.688191
endloop
endfacet
facet normal -0.57735 0.57735 0.57735
outer loop
vertex -0.688191 0.425325 0.587785
vertex -0.425325 0.587785 0.688191
vertex -0.587785 0.688191 0.425325
endloop
endfacet
facet normal 0.161364 0.562709 0.810753
outer loop
vertex 0 0.525731 0.850651
vertex 0.259892 0.433889 0.862668
vertex 0.160622 0.69378 0.702046
endloop
endfacet
facet normal 0.412232 0.453033 0.790459
outer loop
vertex 0.5 0.309017 0.809017
vertex 0.425325 0.587785 0.688191
vertex 0.259892 0.433889 0.862668
endloop
endfacet
facet normal 0.315754 0.705616 0.634354
outer loop
vertex 0.309017 0.809017 0.5
vertex 0.160622 0.69378 0.702046
vertex 0.425325 0.587785 0.688191
endloop
endfacet
facet normal 0.272065 0.578958 0.768628
outer loop
vertex 0.259892 0.433889 0.862668
vertex 0.425325 0.587785 0.688191
vertex 0.160622 0.69378 0.702046
endloop
endfacet
facet normal 0.810753 0.161364 0.562709
outer loop
vertex 0.850651 0 0.525731
vertex 0.862668 0.259892 0.433889
vertex 0.702046 0.160622 0.69378
endloop
endfacet
facet normal 0.790459 0.412232 0.453033
outer loop
vertex 0.809017 0.5 0.309017
vertex 0.688191 0.425325 0.587785
vertex 0.862668 0.259892 0.433889
endloop
endfacet
facet normal 0.634354 0.315754 0.705616
outer loop
vertex 0.5 0.309017 0.809017
vertex 0.702046 0.160622 0.69378
vertex 0.688191 0.425325 0.587785
endloop
endfacet
facet normal 0.768628 0.272065 0.578958
outer loop
vertex 0.862668 0.259892 0.433889
vertex 0.688191 0.425325 0.587785
vertex 0.702046 0.160622 0.69378
endloop
endfacet
facet normal 0.562709 0.810753 0.161364
outer loop
vertex 0.525731 0.850651 0
vertex 0.433889 0.862668 0.259892
vertex 0.69378 0.702046 0.160622
endloop
endfacet
facet normal 0.453033 0.790459 0.412232
outer loop
vertex 0.309017 0.809017 0.5
vertex 0.587785 0.688191 0.425325
vertex 0.433889 0.862668 0.259892
endloop
endfacet
facet normal 0.705616 0.634354 0.315754
outer loop
vertex 0.809017 0.5 0.309017
vertex 0.69378 0.702046 0.160622
vertex 0.587785 0.688191 0.425325
endloop
endfacet
facet normal 0.578958 0.768628 0.272065
outer loop
vertex 0.433889 0.862668 0.259892
vertex 0.587785 0.688191 0.425325
vertex 0.69378 0.702046 0.160622
endloop
endfacet
facet normal 0.548117 0.451883 0.703825
outer loop
vertex 0.5 0.309017 0.809017
vertex 0.688191 0.425325 0.587785
vertex 0.425325 0.587785 0.688191
endloop
endfacet
facet normal 0.703825 0.548117 0.451883
outer loop
vertex 0.809017 0.5 0.309017
vertex 0.587785 0.688191 0.425325
vertex 0.688191 0.425325 0.587785
endloop
endfacet
facet normal 0.451883 0.703825 0.548117
outer loop
vertex 0.309017 0.809017 0.5
vertex 0.425325 0.587785 0.688191
vertex 0.587785 0.688191 0.425325
endloop
endfacet
facet normal 0.57735 0.57735 0.57735
outer loop
vertex 0.688191 0.425325 0.587785
vertex 0.587785 0.688191 0.425325
vertex 0.425325 0.587785 0.688191
endloop
endfacet
facet normal 0.910482 0.0997285 0.401344
outer loop
vertex 0.850651 0 0.525731
vertex 0.961938 0 0.273267
vertex 0.862668 0.259892 0.433889
endloop
endfacet
facet normal 0.985606 0.0986689 0.137279
outer loop
vertex 1 0 0
vertex 0.951057 0.262866 0.16246
vertex 0.961938 0 0.273267
endloop
endfacet
facet normal 0.889128 0.351251 0.293384
outer loop
vertex 0.809017 0.5 0.309017
vertex 0.862668 0.259892 0.433889
vertex 0.951057 0.262866 0.16246
endloop
endfacet
facet normal 0.936773 0.168145 0.306893
outer loop
vertex 0.961938 0 0.273267
vertex 0.951057 0.262866 0.16246
vertex 0.862668 0.259892 0.433889
endloop
endfacet
facet normal 0.910482 0.0997285 -0.401344
outer loop
vertex 0.850651 0 -0.525731
vertex 0.862668 0.259892 -0.433889
vertex 0.961938 0 -0.273267
endloop
endfacet
facet normal 0.889128 0.351251 -0.293384
outer loop
vertex 0.809017 0.5 -0.309017
vertex 0.951057 0.262866 -0.16246
vertex 0.862668 0.259892 -0.433889
endloop
endfacet
facet normal 0.985606 0.0986689 -0.137279
outer loop
vertex 1 0 0
vertex 0.961938 0 -0.273267
vertex 0.951057 0.262866 -0.16246
endloop
endfacet
facet normal 0.936773 0.168145 -0.306893
outer loop
vertex 0.862668 0.259892 -0.433889
vertex 0.951057 0.262866 -0.16246
vertex 0.961938 0 -0.273267
endloop
endfacet
facet normal 0.662437 0.749118 0
outer loop
vertex 0.525731 0.850651 0
vertex 0.69378 0.702046 0.160622
vertex 0.69378 0.702046 -0.160622
endloop
endfacet
facet normal 0.804285 0.573374 0.156105
outer loop
vertex 0.809017 0.5 0.309017
vertex 0.850651 0.525731 0
vertex 0.69378 0.702046 0.160622
endloop
endfacet
facet normal 0.804285 0.573374 -0.156105
outer loop
vertex 0.809017 0.5 -0.309017
vertex 0.69378 0.702046 -0.160622
vertex 0.850651 0.525731 0
endloop
endfacet
facet normal 0.747103 0.664708 0
outer loop
vertex 0.69378 0.702046 0.160622
vertex 0.850651 0.525731 0
vertex 0.69378 0.702046 -0.160622
endloop
endfacet
facet normal 0.983104 0.183046 0
outer loop
vertex 1 0 0
vertex 0.951057 0.262866 -0.16246
vertex 0.951057 0.262866 0.16246
endloop
endfacet
facet normal 0.886871 0.434988 -0.155708
outer loop
vertex 0.809017 0.5 -0.309017
vertex 0.850651 0.525731 0
vertex 0.951057 0.262866 -0.16246
endloop
endfacet
facet normal 0.886871 0.434988 0.155708
outer loop
vertex 0.809017 0.5 0.309017
vertex 0.951057 0.262866 0.16246
vertex 0.850651 0.525731 0
endloop
endfacet
facet normal 0.934172 0.356822 -0
outer loop
vertex 0.951057 0.262866 -0.16246
vertex 0.850651 0.525731 0
vertex 0.951057 0.262866 0.16246
endloop
endfacet
facet normal 0.562709 0.810753 -0.161364
outer loop
vertex 0.525731 0.850651 0
vertex 0.69378 0.702046 -0.160622
vertex 0.433889 0.862668 -0.259892
endloop
endfacet
facet normal 0.705616 0.634354 -0.315754
outer loop
vertex 0.809017 0.5 -0.309017
vertex 0.587785 0.688191 -0.425325
vertex 0.69378 0.702046 -0.160622
endloop
endfacet
facet normal 0.453033 0.790459 -0.412232
outer loop
vertex 0.309017 0.809017 -0.5
vertex 0.433889 0.862668 -0.259892
vertex 0.587785 0.688191 -0.425325
endloop
endfacet
facet normal 0.578958 0.768628 -0.272065
outer loop
vertex 0.69378 0.702046 -0.160622
vertex 0.587785 0.688191 -0.425325
vertex 0.433889 0.862668 -0.259892
endloop
endfacet
facet normal 0.810753 0.161364 -0.562709
outer loop
vertex 0.850651 0 -0.525731
vertex 0.702046 0.160622 -0.69378
vertex 0.862668 0.259892 -0.433889
endloop
endfacet
facet normal 0.634354 0.315754 -0.705616
outer loop
vertex 0.5 0.309017 -0.809017
vertex 0.688191 0.425325 -0.587785
vertex 0.702046 0.160622 -0.69378
endloop
endfacet
facet normal 0.790459 0.412232 -0.453033
outer loop
vertex 0.809017 0.5 -0.309017
vertex 0.862668 0.259892 -0.433889
vertex 0.688191 0.425325 -0.587785
endloop
endfacet
facet normal 0.768628 0.272065 -0.578958
outer loop
vertex 0.702046 0.160622 -0.69378
vertex 0.688191 0.425325 -0.587785
vertex 0.862668 0.259892 -0.433889
endloop
endfacet
facet normal 0.161364 0.562709 -0.810753
outer loop
vertex 0 0.525731 -0.850651
vertex 0.160622 0.69378 -0.702046
vertex 0.259892 0.433889 -0.862668
endloop
endfacet
facet normal 0.315754 0.705616 -0.634354
outer loop
vertex 0.309017 0.809017 -0.5
vertex 0.425325 0.587785 -0.688191
vertex 0.160622 0.69378 -0.702046
endloop
endfacet
facet normal 0.412232 0.453033 -0.790459
outer loop
vertex 0.5 0.309017 -0.809017
vertex 0.259892 0.433889 -0.862668
vertex 0.425325 0.587785 -0.688191
endloop
endfacet
facet normal 0.272065 0.578958 -0.768628
outer loop
vertex 0.160622 0.69378 -0.702046
vertex 0.425325 0.587785 -0.688191
vertex 0.259892 0.433889 -0.862668
endloop
endfacet
facet normal 0.703825 0.548117 -0.451883
outer loop
vertex 0.809017 0.5 -0.309017
vertex 0.688191 0.425325 -0.587785
vertex 0.587785 0.688191 -0.425325
endloop
endfacet
facet normal 0.548117 0.451883 -0.703825
outer loop
vertex 0.5 0.309017 -0.809017
vertex 0.425325 0.587785 -0.688191
vertex 0.688191 0.425325 -0.587785
endloop
endfacet
facet normal 0.451883 0.703825 -0.548117
outer loop
vertex 0.309017 0.809017 -0.5
vertex 0.587785 0.688191 -0.425325
vertex 0.425325 0.587785 -0.688191
endloop
endfacet
facet normal 0.57735 0.57735 -0.57735
outer loop
vertex 0.688191 0.425325 -0.587785
vertex 0.425325 0.587785 -0.688191
vertex 0.587785 0.688191 -0.425325
endloop
endfacet
facet normal -0.749118 0 0.662437
outer loop
vertex -0.850651 0 0.525731
vertex -0.702046 -0.160622 0.69378
vertex -0.702046 0.160622 0.69378
endloop
endfacet
facet normal -0.573374 -0.156105 0.804285
outer loop
vertex -0.5 -0.309017 0.809017
vertex -0.525731 0 0.850651
vertex -0.702046 -0.160622 0.69378
endloop
endfacet
facet normal -0.573374 0.156105 0.804285
outer loop
vertex -0.5 0.309017 0.809017
vertex -0.702046 0.160622 0.69378
vertex -0.525731 0 0.850651
endloop
endfacet
facet normal -0.664708 0 0.747103
outer loop
vertex -0.702046 -0.160622 0.69378
vertex -0.525731 0 0.850651
vertex -0.702046 0.160622 0.69378
endloop
endfacet
facet normal -0.0997285 -0.401344 0.910482
outer loop
vertex 0 -0.525731 0.850651
vertex 0 -0.273267 0.961938
vertex -0.259892 -0.433889 0.862668
endloop
endfacet
facet normal -0.0986689 -0.137279 0.985606
outer loop
vertex 0 0 1
vertex -0.262866 -0.16246 0.951057
vertex 0 -0.273267 0.961938
endloop
endfacet
facet normal -0.351251 -0.293384 0.889128
outer loop
vertex -0.5 -0.309017 0.809017
vertex -0.259892 -0.433889 0.862668
vertex -0.262866 -0.16246 0.951057
endloop
endfacet
facet normal -0.168145 -0.306893 0.936773
outer loop
vertex 0 -0.273267 0.961938
vertex -0.262866 -0.16246 0.951057
vertex -0.259892 -0.433889 0.862668
endloop
endfacet
facet normal -0.0997285 0.401344 0.910482
outer loop
vertex 0 0.525731 0.850651
vertex -0.259892 0.433889 0.862668
vertex 0 0.273267 0.961938
endloop
endfacet
facet normal -0.351251 0.293384 0.889128
outer loop
vertex -0.5 0.309017 0.809017
vertex -0.262866 0.16246 0.951057
vertex -0.259892 0.433889 0.862668
endloop
endfacet
facet normal -0.0986689 0.137279 0.985606
outer loop
vertex 0 0 1
vertex 0 0.273267 0.961938
vertex -0.262866 0.16246 0.951057
endloop
endfacet
facet normal -0.168145 0.306893 0.936773
outer loop
vertex -0.259892 0.433889 0.862668
vertex -0.262866 0.16246 0.951057
vertex 0 0.273267 0.961938
endloop
endfacet
facet normal -0.434988 -0.155708 0.886871
outer loop
vertex -0.5 -0.309017 0.809017
vertex -0.262866 -0.16246 0.951057
vertex -0.525731 0 0.850651
endloop
endfacet
facet normal -0.183046 0 0.983104
outer loop
vertex 0 0 1
vertex -0.262866 0.16246 0.951057
vertex -0.262866 -0.16246 0.951057
endloop
endfacet
facet normal -0.434988 0.155708 0.886871
outer loop
vertex -0.5 0.309017 0.809017
vertex -0.525731 0 0.850651
vertex -0.262866 0.16246 0.951057
endloop
endfacet
facet normal -0.356822 0 0.934172
outer loop
vertex -0.262866 -0.16246 0.951057
vertex -0.262866 0.16246 0.951057
vertex -0.525731 0 0.850651
endloop
endfacet
facet normal 0.0997285 0.401344 0.910482
outer loop
vertex 0 0.525731 0.850651
vertex 0 0.273267 0.961938
vertex 0.259892 0.433889 0.862668
endloop
endfacet
facet normal 0.0986689 0.137279 0.985606
outer loop
vertex 0 0 1
vertex 0.262866 0.16246 0.951057
vertex 0 0.273267 0.961938
endloop
endfacet
facet normal 0.351251 0.293384 0.889128
outer loop
vertex 0.5 0.309017 0.809017
vertex 0.259892 0.433889 0.862668
vertex 0.262866 0.16246 0.951057
endloop
endfacet
facet normal 0.168145 0.306893 0.936773
outer loop
vertex 0 0.273267 0.961938
vertex 0.262866 0.16246 0.951057
vertex 0.259892 0.433889 0.862668
endloop
endfacet
facet normal 0.0997285 -0.401344 0.910482
outer loop
vertex 0 -0.525731 0.850651
vertex 0.259892 -0.433889 0.862668
vertex 0 -0.273267 0.961938
endloop
endfacet
facet normal 0.351251 -0.293384 0.889128
outer loop
vertex 0.5 -0.309017 0.809017
vertex 0.262866 -0.16246 0.951057
vertex 0.259892 -0.433889 0.862668
endloop
endfacet
facet normal 0.0986689 -0.137279 0.985606
outer loop
vertex 0 0 1
vertex 0 -0.273267 0.961938
vertex 0.262866 -0.16246 0.951057
endloop
endfacet
facet normal 0.168145 -0.306893 0.936773
outer loop
vertex 0.259892 -0.433889 0.862668
vertex 0.262866 -0.16246 0.951057
vertex 0 -0.273267 0.961938
endloop
endfacet
facet normal 0.749118 0 0.662437
outer loop
vertex 0.850651 0 0.525731
vertex 0.702046 0.160622 0.69378
vertex 0.702046 -0.160622 0.69378
endloop
endfacet
facet normal 0.573374 0.156105 0.804285
outer loop
vertex 0.5 0.309017 0.809017
vertex 0.525731 0 0.850651
vertex 0.702046 0.160622 0.69378
endloop
endfacet
facet normal 0.573374 -0.156105 0.804285
outer loop
vertex 0.5 -0.309017 0.809017
vertex 0.702046 -0.160622 0.69378
vertex 0.525731 0 0.850651
endloop
endfacet
facet normal 0.664708 0 0.747103
outer loop
vertex 0.702046 0.160622 0.69378
vertex 0.525731 0 0.850651
vertex 0.702046 -0.160622 0.69378
endloop
endfacet
facet normal 0.183046 0 0.983104
outer loop
vertex 0 0 1
vertex 0.262866 -0.16246 0.951057
vertex 0.262866 0.16246 0.951057
endloop
endfacet
facet normal 0.434988 -0.155708 0.886871
outer loop
vertex 0.5 -0.309017 0.809017
vertex 0.525731 0 0.850651
vertex 0.262866 -0.16246 0.951057
endloop
endfacet
facet normal 0.434988 0.155708 0.886871
outer loop
vertex 0.5 0.309017 0.809017
vertex 0.262866 0.16246 0.951057
vertex 0.525731 0 0.850651
endloop
endfacet
facet normal 0.356822 -0 0.934172
outer loop
vertex 0.262866 -0.16246 0.951057
vertex 0.525731 0 0.850651
vertex 0.262866 0.16246 0.951057
endloop
endfacet
facet normal -0.749118 0 -0.662437
outer loop
vertex -0.850651 0 -0.525731
vertex -0.702046 0.160622 -0.69378
vertex -0.702046 -0.160622 -0.69378
endloop
endfacet
facet normal -0.573374 0.156105 -0.804285
outer loop
vertex -0.5 0.309017 -0.809017
vertex -0.525731 0 -0.850651
vertex -0.702046 0.160622 -0.69378
endloop
endfacet
facet normal -0.573374 -0.156105 -0.804285
outer loop
vertex -0.5 -0.309017 -0.809017
vertex -0.702046 -0.160622 -0.69378
vertex -0.525731 0 -0.850651
endloop
endfacet
facet normal -0.664708 -0 -0.747103
outer loop
vertex -0.702046 0.160622 -0.69378
vertex -0.525731 0 -0.850651
vertex -0.702046 -0.160622 -0.69378
endloop
endfacet
facet normal -0.0997285 0.401344 -0.910482
outer loop
vertex 0 0.525731 -0.850651
vertex 0 0.273267 -0.961938
vertex -0.259892 0.433889 -0.862668
endloop
endfacet
facet normal -0.0986689 0.137279 -0.985606
outer loop
vertex 0 0 -1
vertex -0.262866 0.16246 -0.951057
vertex 0 0.273267 -0.961938
endloop
endfacet
facet normal -0.351251 0.293384 -0.889128
outer loop
vertex -0.5 0.309017 -0.809017
vertex -0.259892 0.433889 -0.862668
vertex -0.262866 0.16246 -0.951057
endloop
endfacet
facet normal -0.168145 0.306893 -0.936773
outer loop
vertex 0 0.273267 -0.961938
vertex -0.262866 0.16246 -0.951057
vertex -0.259892 0.433889 -0.862668
endloop
endfacet
facet normal -0.0997285 -0.401344 -0.910482
outer loop
vertex 0 -0.525731 -0.850651
vertex -0.259892 -0.433889 -0.862668
vertex 0 -0.273267 -0.961938
endloop
endfacet
facet normal -0.351251 -0.293384 -0.889128
outer loop
vertex -0.5 -0.309017 -0.809017
vertex -0.262866 -0.16246 -0.951057
vertex -0.259892 -0.433889 -0.862668
endloop
endfacet
facet normal -0.0986689 -0.137279 -0.985606
outer loop
vertex 0 0 -1
vertex 0 -0.273267 -0.961938
vertex -0.262866 -0.16246 -0.951057
endloop
endfacet
facet normal -0.168145 -0.306893 -0.936773
outer loop
vertex -0.259892 -0.433889 -0.862668
vertex -0.262866 -0.16246 -0.951057
vertex 0 -0.273267 -0.961938
endloop
endfacet
facet normal -0.434988 0.155708 -0.886871
outer loop
vertex -0.5 0.309017 -0.809017
vertex -0.262866 0.16246 -0.951057
vertex -0.525731 0 -0.850651
endloop
endfacet
facet normal -0.183046 0 -0.983104
outer loop
vertex 0 0 -1
vertex -0.262866 -0.16246 -0.951057
vertex -0.262866 0.16246 -0.951057
endloop
endfacet
facet normal -0.434988 -0.155708 -0.886871
outer loop
vertex -0.5 -0.309017 -0.809017
vertex -0.525731 0 -0.850651
vertex -0.262866 -0.16246 -0.951057
endloop
endfacet
facet normal -0.356822 -0 -0.934172
outer loop
vertex -0.262866 0.16246 -0.951057
vertex -0.262866 -0.16246 -0.951057
vertex -0.525731 0 -0.850651
endloop
endfacet
facet normal 0.0997285 0.401344 -0.910482
outer loop
vertex 0 0.525731 -0.850651
vertex 0.259892 0.433889 -0.862668
vertex 0 0.273267 -0.961938
endloop
endfacet
facet normal 0.351251 0.293384 -0.889128
outer loop
vertex 0.5 0.309017 -0.809017
vertex 0.262866 0.16246 -0.951057
vertex 0.259892 0.433889 -0.862668
endloop
endfacet
facet normal 0.0986689 0.137279 -0.985606
outer loop
vertex 0 0 -1
vertex 0 0.273267 -0.961938
vertex 0.262866 0.16246 -0.951057
endloop
endfacet
facet normal 0.168145 0.306893 -0.936773
outer loop
vertex 0.259892 0.433889 -0.862668
vertex 0.262866 0.16246 -0.951057
vertex 0 0.273267 -0.961938
endloop
endfacet
facet normal 0.749118 0 -0.662437
outer loop
vertex 0.850651 0 -0.525731
vertex 0.702046 -0.160622 -0.69378
vertex 0.702046 0.160622 -0.69378
endloop
endfacet
facet normal 0.573374 -0.156105 -0.804285
outer loop
vertex 0.5 -0.309017 -0.809017
vertex 0.525731 0 -0.850651
vertex 0.702046 -0.160622 -0.69378
endloop
endfacet
facet normal 0.573374 0.156105 -0.804285
outer loop
vertex 0.5 0.309017 -0.809017
vertex 0.702046 0.160622 -0.69378
vertex 0.525731 0 -0.850651
endloop
endfacet
facet normal 0.664708 0 -0.747103
outer loop
vertex 0.702046 -0.160622 -0.69378
vertex 0.525731 0 -0.850651
vertex 0.702046 0.160622 -0.69378
endloop
endfacet
facet normal 0.0997285 -0.401344 -0.910482
outer loop
vertex 0 -0.525731 -0.850651
vertex 0 -0.273267 -0.961938
vertex 0.259892 -0.433889 -0.862668
endloop
endfacet
facet normal 0.0986689 -0.137279 -0.985606
outer loop
vertex 0 0 -1
vertex 0.262866 -0.16246 -0.951057
vertex 0 -0.273267 -0.961938
endloop
endfacet
facet normal 0.351251 -0.293384 -0.889128
outer loop
vertex 0.5 -0.309017 -0.809017
vertex 0.259892 -0.433889 -0.862668
vertex 0.262866 -0.16246 -0.951057
endloop
endfacet
facet normal 0.168145 -0.306893 -0.936773
outer loop
vertex 0 -0.273267 -0.961938
vertex 0.262866 -0.16246 -0.951057
vertex 0.259892 -0.433889 -0.862668
endloop
endfacet
facet normal 0.434988 0.155708 -0.886871
outer loop
vertex 0.5 0.309017 -0.809017
vertex 0.525731 0 -0.850651
vertex 0.262866 0.16246 -0.951057
endloop
endfacet
facet normal 0.434988 -0.155708 -0.886871
outer loop
vertex 0.5 -0.309017 -0.809017
vertex 0.262866 -0.16246 -0.951057
vertex 0.525731 0 -0.850651
endloop
endfacet
facet normal 0.183046 0 -0.983104
outer loop
vertex 0 0 -1
vertex 0.262866 0.16246 -0.951057
vertex 0.262866 -0.16246 -0.951057
endloop
endfacet
facet normal 0.356822 0 -0.934172
outer loop
vertex 0.525731 0 -0.850651
vertex 0.262866 -0.16246 -0.951057
vertex 0.262866 0.16246 -0.951057
endloop
endfacet
facet normal -0.161364 -0.562709 -0.810753
outer loop
vertex 0 -0.525731 -0.850651
vertex -0.160622 -0.69378 -0.702046
vertex -0.259892 -0.433889 -0.862668
endloop
endfacet
facet normal -0.315754 -0.705616 -0.634354
outer loop
vertex -0.309017 -0.809017 -0.5
vertex -0.425325 -0.587785 -0.688191
vertex -0.160622 -0.69378 -0.702046
endloop
endfacet
facet normal -0.412232 -0.453033 -0.790459
outer loop
vertex -0.5 -0.309017 -0.809017
vertex -0.259892 -0.433889 -0.862668
vertex -0.425325 -0.587785 -0.688191
endloop
endfacet
facet normal -0.272065 -0.578958 -0.768628
outer loop
vertex -0.160622 -0.69378 -0.702046
vertex -0.425325 -0.587785 -0.688191
vertex -0.259892 -0.433889 -0.862668
endloop
endfacet
facet normal -0.562709 -0.810753 -0.161364
outer loop
vertex -0.525731 -0.850651 0
vertex -0.69378 -0.702046 -0.160622
vertex -0.433889 -0.862668 -0.259892
endloop
endfacet
facet normal -0.705616 -0.634354 -0.315754
outer loop
vertex -0.809017 -0.5 -0.309017
vertex -0.587785 -0.688191 -0.425325
vertex -0.69378 -0.702046 -0.160622
endloop
endfacet
facet normal -0.453033 -0.790459 -0.412232
outer loop
vertex -0.309017 -0.809017 -0.5
vertex -0.433889 -0.862668 -0.259892
vertex -0.587785 -0.688191 -0.425325
endloop
endfacet
facet normal -0.578958 -0.768628 -0.272065
outer loop
vertex -0.69378 -0.702046 -0.160622
vertex -0.587785 -0.688191 -0.425325
vertex -0.433889 -0.862668 -0.259892
endloop
endfacet
facet normal -0.810753 -0.161364 -0.562709
outer loop
vertex -0.850651 0 -0.525731
vertex -0.702046 -0.160622 -0.69378
vertex -0.862668 -0.259892 -0.433889
endloop
endfacet
facet normal -0.634354 -0.315754 -0.705616
outer loop
vertex -0.5 -0.309017 -0.809017
vertex -0.688191 -0.425325 -0.587785
vertex -0.702046 -0.160622 -0.69378
endloop
endfacet
facet normal -0.790459 -0.412232 -0.453033
outer loop
vertex -0.809017 -0.5 -0.309017
vertex -0.862668 -0.259892 -0.433889
vertex -0.688191 -0.425325 -0.587785
endloop
endfacet
facet normal -0.768628 -0.272065 -0.578958
outer loop
vertex -0.702046 -0.160622 -0.69378
vertex -0.688191 -0.425325 -0.587785
vertex -0.862668 -0.259892 -0.433889
endloop
endfacet
facet normal -0.451883 -0.703825 -0.548117
outer loop
vertex -0.309017 -0.809017 -0.5
vertex -0.587785 -0.688191 -0.425325
vertex -0.425325 -0.587785 -0.688191
endloop
endfacet
facet normal -0.703825 -0.548117 -0.451883
outer loop
vertex -0.809017 -0.5 -0.309017
vertex -0.688191 -0.425325 -0.587785
vertex -0.587785 -0.688191 -0.425325
endloop
endfacet
facet normal -0.548117 -0.451883 -0.703825
outer loop
vertex -0.5 -0.309017 -0.809017
vertex -0.425325 -0.587785 -0.688191
vertex -0.688191 -0.425325 -0.587785
endloop
endfacet
facet normal -0.57735 -0.57735 -0.57735
outer loop
vertex -0.587785 -0.688191 -0.425325
vertex -0.688191 -0.425325 -0.587785
vertex -0.425325 -0.587785 -0.688191
endloop
endfacet
facet normal -0.910482 -0.0997285 -0.401344
outer loop
vertex -0.850651 0 -0.525731
vertex -0.862668 -0.259892 -0.433889
vertex -0.961938 0 -0.273267
endloop
endfacet
facet normal -0.889128 -0.351251 -0.293384
outer loop
vertex -0.809017 -0.5 -0.309017
vertex -0.951057 -0.262866 -0.16246
vertex -0.862668 -0.259892 -0.433889
endloop
endfacet
facet normal -0.985606 -0.0986689 -0.137279
outer loop
vertex -1 0 0
vertex -0.961938 0 -0.273267
vertex -0.951057 -0.262866 -0.16246
endloop
endfacet
facet normal -0.936773 -0.168145 -0.306893
outer loop
vertex -0.862668 -0.259892 -0.433889
vertex -0.951057 -0.262866 -0.16246
vertex -0.961938 0 -0.273267
endloop
endfacet
facet normal -0.662437 -0.749118 0
outer loop
vertex -0.525731 -0.850651 0
vertex -0.69378 -0.702046 0.160622
vertex -0.69378 -0.702046 -0.160622
endloop
endfacet
facet normal -0.804285 -0.573374 0.156105
outer loop
vertex -0.809017 -0.5 0.309017
vertex -0.850651 -0.525731 0
vertex -0.69378 -0.702046 0.160622
endloop
endfacet
facet normal -0.804285 -0.573374 -0.156105
outer loop
vertex -0.809017 -0.5 -0.309017
vertex -0.69378 -0.702046 -0.160622
vertex -0.850651 -0.525731 0
endloop
endfacet
facet normal -0.747103 -0.664708 -0
outer loop
vertex -0.69378 -0.702046 0.160622
vertex -0.850651 -0.525731 0
vertex -0.69378 -0.702046 -0.160622
endloop
endfacet
facet normal -0.910482 -0.0997285 0.401344
outer loop
vertex -0.850651 0 0.525731
vertex -0.961938 0 0.273267
vertex -0.862668 -0.259892 0.433889
endloop
endfacet
facet normal -0.985606 -0.0986689 0.137279
outer loop
vertex -1 0 0
vertex -0.951057 -0.262866 0.16246
vertex -0.961938 0 0.273267
endloop
endfacet
facet normal -0.889128 -0.351251 0.293384
outer loop
vertex -0.809017 -0.5 0.309017
vertex -0.862668 -0.259892 0.433889
vertex -0.951057 -0.262866 0.16246
endloop
endfacet
facet normal -0.936773 -0.168145 0.306893
outer loop
vertex -0.961938 0 0.273267
vertex -0.951057 -0.262866 0.16246
vertex -0.862668 -0.259892 0.433889
endloop
endfacet
facet normal -0.886871 -0.434988 -0.155708
outer loop
vertex -0.809017 -0.5 -0.309017
vertex -0.850651 -0.525731 0
vertex -0.951057 -0.262866 -0.16246
endloop
endfacet
facet normal -0.886871 -0.434988 0.155708
outer loop
vertex -0.809017 -0.5 0.309017
vertex -0.951057 -0.262866 0.16246
vertex -0.850651 -0.525731 0
endloop
endfacet
facet normal -0.983104 -0.183046 0
outer loop
vertex -1 0 0
vertex -0.951057 -0.262866 -0.16246
vertex -0.951057 -0.262866 0.16246
endloop
endfacet
facet normal -0.934172 -0.356822 0
outer loop
vertex -0.850651 -0.525731 0
vertex -0.951057 -0.262866 0.16246
vertex -0.951057 -0.262866 -0.16246
endloop
endfacet
facet normal -0.562709 -0.810753 0.161364
outer loop
vertex -0.525731 -0.850651 0
vertex -0.433889 -0.862668 0.259892
vertex -0.69378 -0.702046 0.160622
endloop
endfacet
facet normal -0.453033 -0.790459 0.412232
outer loop
vertex -0.309017 -0.809017 0.5
vertex -0.587785 -0.688191 0.425325
vertex -0.433889 -0.862668 0.259892
endloop
endfacet
facet normal -0.705616 -0.634354 0.315754
outer loop
vertex -0.809017 -0.5 0.309017
vertex -0.69378 -0.702046 0.160622
vertex -0.587785 -0.688191 0.425325
endloop
endfacet
facet normal -0.578958 -0.768628 0.272065
outer loop
vertex -0.433889 -0.862668 0.259892
vertex -0.587785 -0.688191 0.425325
vertex -0.69378 -0.702046 0.160622
endloop
endfacet
facet normal -0.161364 -0.562709 0.810753
outer loop
vertex 0 -0.525731 0.850651
vertex -0.259892 -0.433889 0.862668
vertex -0.160622 -0.69378 0.702046
endloop
endfacet
facet normal -0.412232 -0.453033 0.790459
outer loop
vertex -0.5 -0.309017 0.809017
vertex -0.425325 -0.587785 0.688191
vertex -0.259892 -0.433889 0.862668
endloop
endfacet
facet normal -0.315754 -0.705616 0.634354
outer loop
vertex -0.309017 -0.809017 0.5
vertex -0.160622 -0.69378 0.702046
vertex -0.425325 -0.587785 0.688191
endloop
endfacet
facet normal -0.272065 -0.578958 0.768628
outer loop
vertex -0.259892 -0.433889 0.862668
vertex -0.425325 -0.587785 0.688191
vertex -0.160622 -0.69378 0.702046
endloop
endfacet
facet normal -0.810753 -0.161364 0.562709
outer loop
vertex -0.850651 0 0.525731
vertex -0.862668 -0.259892 0.433889
vertex -0.702046 -0.160622 0.69378
endloop
endfacet
facet normal -0.790459 -0.412232 0.453033
outer loop
vertex -0.809017 -0.5 0.309017
vertex -0.688191 -0.425325 0.587785
vertex -0.862668 -0.259892 0.433889
endloop
endfacet
facet normal -0.634354 -0.315754 0.705616
outer loop
vertex -0.5 -0.309017 0.809017
vertex -0.702046 -0.160622 0.69378
vertex -0.688191 -0.425325 0.587785
endloop
endfacet
facet normal -0.768628 -0.272065 0.578958
outer loop
vertex -0.862668 -0.259892 0.433889
vertex -0.688191 -0.425325 0.587785
vertex -0.702046 -0.160622 0.69378
endloop
endfacet
facet normal -0.451883 -0.703825 0.548117
outer loop
vertex -0.309017 -0.809017 0.5
vertex -0.425325 -0.587785 0.688191
vertex -0.587785 -0.688191 0.425325
endloop
endfacet
facet normal -0.548117 -0.451883 0.703825
outer loop
vertex -0.5 -0.309017 0.809017
vertex -0.688191 -0.425325 0.587785
vertex -0.425325 -0.587785 0.688191
endloop
endfacet
facet normal -0.703825 -0.548117 0.451883
outer loop
vertex -0.809017 -0.5 0.309017
vertex -0.587785 -0.688191 0.425325
vertex -0.688191 -0.425325 0.587785
endloop
endfacet
facet normal -0.57735 -0.57735 0.57735
outer loop
vertex -0.425325 -0.587785 0.688191
vertex -0.688191 -0.425325 0.587785
vertex -0.587785 -0.688191 0.425325
endloop
endfacet
facet normal 0.161364 -0.562709 0.810753
outer loop
vertex 0 -0.525731 0.850651
vertex 0.160622 -0.69378 0.702046
vertex 0.259892 -0.433889 0.862668
endloop
endfacet
facet normal 0.315754 -0.705616 0.634354
outer loop
vertex 0.309017 -0.809017 0.5
vertex 0.425325 -0.587785 0.688191
vertex 0.160622 -0.69378 0.702046
endloop
endfacet
facet normal 0.412232 -0.453033 0.790459
outer loop
vertex 0.5 -0.309017 0.809017
vertex 0.259892 -0.433889 0.862668
vertex 0.425325 -0.587785 0.688191
endloop
endfacet
facet normal 0.272065 -0.578958 0.768628
outer loop
vertex 0.160622 -0.69378 0.702046
vertex 0.425325 -0.587785 0.688191
vertex 0.259892 -0.433889 0.862668
endloop
endfacet
facet normal 0.562709 -0.810753 0.161364
outer loop
vertex 0.525731 -0.850651 0
vertex 0.69378 -0.702046 0.160622
vertex 0.433889 -0.862668 0.259892
endloop
endfacet
facet normal 0.705616 -0.634354 0.315754
outer loop
vertex 0.809017 -0.5 0.309017
vertex 0.587785 -0.688191 0.425325
vertex 0.69378 -0.702046 0.160622
endloop
endfacet
facet normal 0.453033 -0.790459 0.412232
outer loop
vertex 0.309017 -0.809017 0.5
vertex 0.433889 -0.862668 0.259892
vertex 0.587785 -0.688191 0.425325
endloop
endfacet
facet normal 0.578958 -0.768628 0.272065
outer loop
vertex 0.69378 -0.702046 0.160622
vertex 0.587785 -0.688191 0.425325
vertex 0.433889 -0.862668 0.259892
endloop
endfacet
facet normal 0.810753 -0.161364 0.562709
outer loop
vertex 0.850651 0 0.525731
vertex 0.702046 -0.160622 0.69378
vertex 0.862668 -0.259892 0.433889
endloop
endfacet
facet normal 0.634354 -0.315754 0.705616
outer loop
vertex 0.5 -0.309017 0.809017
vertex 0.688191 -0.425325 0.587785
vertex 0.702046 -0.160622 0.69378
endloop
endfacet
facet normal 0.790459 -0.412232 0.453033
outer loop
vertex 0.809017 -0.5 0.309017
vertex 0.862668 -0.259892 0.433889
vertex 0.688191 -0.425325 0.587785
endloop
endfacet
facet normal 0.768628 -0.272065 0.578958
outer loop
vertex 0.702046 -0.160622 0.69378
vertex 0.688191 -0.425325 0.587785
vertex 0.862668 -0.259892 0.433889
endloop
endfacet
facet normal 0.451883 -0.703825 0.548117
outer loop
vertex 0.309017 -0.809017 0.5
vertex 0.587785 -0.688191 0.425325
vertex 0.425325 -0.587785 0.688191
endloop
endfacet
facet normal 0.703825 -0.548117 0.451883
outer loop
vertex 0.809017 -0.5 0.309017
vertex 0.688191 -0.425325 0.587785
vertex 0.587785 -0.688191 0.425325
endloop
endfacet
facet normal 0.548117 -0.451883 0.703825
outer loop
vertex 0.5 -0.309017 0.809017
vertex 0.425325 -0.587785 0.688191
vertex 0.688191 -0.425325 0.587785
endloop
endfacet
facet normal 0.57735 -0.57735 0.57735
outer loop
vertex 0.587785 -0.688191 0.425325
vertex 0.688191 -0.425325 0.587785
vertex 0.425325 -0.587785 0.688191
endloop
endfacet
facet normal 0.662437 -0.749118 0
outer loop
vertex 0.525731 -0.850651 0
vertex 0.69378 -0.702046 -0.160622
vertex 0.69378 -0.702046 0.160622
endloop
endfacet
facet normal 0.804285 -0.573374 -0.156105
outer loop
vertex 0.809017 -0.5 -0.309017
vertex 0.850651 -0.525731 0
vertex 0.69378 -0.702046 -0.160622
endloop
endfacet
facet normal 0.804285 -0.573374 0.156105
outer loop
vertex 0.809017 -0.5 0.309017
vertex 0.69378 -0.702046 0.160622
vertex 0.850651 -0.525731 0
endloop
endfacet
facet normal 0.747103 -0.664708 0
outer loop
vertex 0.69378 -0.702046 -0.160622
vertex 0.850651 -0.525731 0
vertex 0.69378 -0.702046 0.160622
endloop
endfacet
facet normal 0.910482 -0.0997285 -0.401344
outer loop
vertex 0.850651 0 -0.525731
vertex 0.961938 0 -0.273267
vertex 0.862668 -0.259892 -0.433889
endloop
endfacet
facet normal 0.985606 -0.0986689 -0.137279
outer loop
vertex 1 0 0
vertex 0.951057 -0.262866 -0.16246
vertex 0.961938 0 -0.273267
endloop
endfacet
facet normal 0.889128 -0.351251 -0.293384
outer loop
vertex 0.809017 -0.5 -0.309017
vertex 0.862668 -0.259892 -0.433889
vertex 0.951057 -0.262866 -0.16246
endloop
endfacet
facet normal 0.936773 -0.168145 -0.306893
outer loop
vertex 0.961938 0 -0.273267
vertex 0.951057 -0.262866 -0.16246
vertex 0.862668 -0.259892 -0.433889
endloop
endfacet
facet normal 0.910482 -0.0997285 0.401344
outer loop
vertex 0.850651 0 0.525731
vertex 0.862668 -0.259892 0.433889
vertex 0.961938 0 0.273267
endloop
endfacet
facet normal 0.889128 -0.351251 0.293384
outer loop
vertex 0.809017 -0.5 0.309017
vertex 0.951057 -0.262866 0.16246
vertex 0.862668 -0.259892 0.433889
endloop
endfacet
facet normal 0.985606 -0.0986689 0.137279
outer loop
vertex 1 0 0
vertex 0.961938 0 0.273267
vertex 0.951057 -0.262866 0.16246
endloop
endfacet
facet normal 0.936773 -0.168145 0.306893
outer loop
vertex 0.862668 -0.259892 0.433889
vertex 0.951057 -0.262866 0.16246
vertex 0.961938 0 0.273267
endloop
endfacet
facet normal 0.886871 -0.434988 -0.155708
outer loop
vertex 0.809017 -0.5 -0.309017
vertex 0.951057 -0.262866 -0.16246
vertex 0.850651 -0.525731 0
endloop
endfacet
facet normal 0.983104 -0.183046 0
outer loop
vertex 1 0 0
vertex 0.951057 -0.262866 0.16246
vertex 0.951057 -0.262866 -0.16246
endloop
endfacet
facet normal 0.886871 -0.434988 0.155708
outer loop
vertex 0.809017 -0.5 0.309017
vertex 0.850651 -0.525731 0
vertex 0.951057 -0.262866 0.16246
endloop
endfacet
facet normal 0.934172 -0.356822 0
outer loop
vertex 0.951057 -0.262866 -0.16246
vertex 0.951057 -0.262866 0.16246
vertex 0.850651 -0.525731 0
endloop
endfacet
facet normal 0.562709 -0.810753 -0.161364
outer loop
vertex 0.525731 -0.850651 0
vertex 0.433889 -0.862668 -0.259892
vertex 0.69378 -0.702046 -0.160622
endloop
endfacet
facet normal 0.453033 -0.790459 -0.412232
outer loop
vertex 0.309017 -0.809017 -0.5
vertex 0.587785 -0.688191 -0.425325
vertex 0.433889 -0.862668 -0.259892
endloop
endfacet
facet normal 0.705616 -0.634354 -0.315754
outer loop
vertex 0.809017 -0.5 -0.309017
vertex 0.69378 -0.702046 -0.160622
vertex 0.587785 -0.688191 -0.425325
endloop
endfacet
facet normal 0.578958 -0.768628 -0.272065
outer loop
vertex 0.433889 -0.862668 -0.259892
vertex 0.587785 -0.688191 -0.425325
vertex 0.69378 -0.702046 -0.160622
endloop
endfacet
facet normal 0.161364 -0.562709 -0.810753
outer loop
vertex 0 -0.525731 -0.850651
vertex 0.259892 -0.433889 -0.862668
vertex 0.160622 -0.69378 -0.702046
endloop
endfacet
facet normal 0.412232 -0.453033 -0.790459
outer loop
vertex 0.5 -0.309017 -0.809017
vertex 0.425325 -0.587785 -0.688191
vertex 0.259892 -0.433889 -0.862668
endloop
endfacet
facet normal 0.315754 -0.705616 -0.634354
outer loop
vertex 0.309017 -0.809017 -0.5
vertex 0.160622 -0.69378 -0.702046
vertex 0.425325 -0.587785 -0.688191
endloop
endfacet
facet normal 0.272065 -0.578958 -0.768628
outer loop
vertex 0.259892 -0.433889 -0.862668
vertex 0.425325 -0.587785 -0.688191
vertex 0.160622 -0.69378 -0.702046
endloop
endfacet
facet normal 0.810753 -0.161364 -0.562709
outer loop
vertex 0.850651 0 -0.525731
vertex 0.862668 -0.259892 -0.433889
vertex 0.702046 -0.160622 -0.69378
endloop
endfacet
facet normal 0.790459 -0.412232 -0.453033
outer loop
vertex 0.809017 -0.5 -0.309017
vertex 0.688191 -0.425325 -0.587785
vertex 0.862668 -0.259892 -0.433889
endloop
endfacet
facet normal 0.634354 -0.315754 -0.705616
outer loop
vertex 0.5 -0.309017 -0.809017
vertex 0.702046 -0.160622 -0.69378
vertex 0.688191 -0.425325 -0.587785
endloop
endfacet
facet normal 0.768628 -0.272065 -0.578958
outer loop
vertex 0.862668 -0.259892 -0.433889
vertex 0.688191 -0.425325 -0.587785
vertex 0.702046 -0.160622 -0.69378
endloop
endfacet
facet normal 0.451883 -0.703825 -0.548117
outer loop
vertex 0.309017 -0.809017 -0.5
vertex 0.425325 -0.587785 -0.688191
vertex 0.587785 -0.688191 -0.425325
endloop
endfacet
facet normal 0.548117 -0.451883 -0.703825
outer loop
vertex 0.5 -0.309017 -0.809017
vertex 0.688191 -0.425325 -0.587785
vertex 0.425325 -0.587785 -0.688191
endloop
endfacet
facet normal 0.703825 -0.548117 -0.451883
outer loop
vertex 0.809017 -0.5 -0.309017
vertex 0.587785 -0.688191 -0.425325
vertex 0.688191 -0.425325 -0.587785
endloop
endfacet
facet normal 0.57735 -0.57735 -0.57735
outer loop
vertex 0.425325 -0.587785 -0.688191
vertex 0.688191 -0.425325 -0.587785
vertex 0.587785 -0.688191 -0.425325
endloop
endfacet
facet normal -0.401344 -0.910482 0.0997285
outer loop
vertex -0.525731 -0.850651 0
vertex -0.273267 -0.961938 0
vertex -0.433889 -0.862668 0.259892
endloop
endfacet
facet normal -0.137279 -0.985606 0.0986689
outer loop
vertex 0 -1 0
vertex -0.16246 -0.951057 0.262866
vertex -0.273267 -0.961938 0
endloop
endfacet
facet normal -0.293384 -0.889128 0.351251
outer loop
vertex -0.309017 -0.809017 0.5
vertex -0.433889 -0.862668 0.259892
vertex -0.16246 -0.951057 0.262866
endloop
endfacet
facet normal -0.306893 -0.936773 0.168145
outer loop
vertex -0.273267 -0.961938 0
vertex -0.16246 -0.951057 0.262866
vertex -0.433889 -0.862668 0.259892
endloop
endfacet
facet normal 0.401344 -0.910482 0.0997285
outer loop
vertex 0.525731 -0.850651 0
vertex 0.433889 -0.862668 0.259892
vertex 0.273267 -0.961938 0
endloop
endfacet
facet normal 0.293384 -0.889128 0.351251
outer loop
vertex 0.309017 -0.809017 0.5
vertex 0.16246 -0.951057 0.262866
vertex 0.433889 -0.862668 0.259892
endloop
endfacet
facet normal 0.137279 -0.985606 0.0986689
outer loop
vertex 0 -1 0
vertex 0.273267 -0.961938 0
vertex 0.16246 -0.951057 0.262866
endloop
endfacet
facet normal 0.306893 -0.936773 0.168145
outer loop
vertex 0.433889 -0.862668 0.259892
vertex 0.16246 -0.951057 0.262866
vertex 0.273267 -0.961938 0
endloop
endfacet
facet normal 0 -0.662437 0.749118
outer loop
vertex 0 -0.525731 0.850651
vertex -0.160622 -0.69378 0.702046
vertex 0.160622 -0.69378 0.702046
endloop
endfacet
facet normal -0.156105 -0.804285 0.573374
outer loop
vertex -0.309017 -0.809017 0.5
vertex 0 -0.850651 0.525731
vertex -0.160622 -0.69378 0.702046
endloop
endfacet
facet normal 0.156105 -0.804285 0.573374
outer loop
vertex 0.309017 -0.809017 0.5
vertex 0.160622 -0.69378 0.702046
vertex 0 -0.850651 0.525731
endloop
endfacet
facet normal 0 -0.747103 0.664708
outer loop
vertex -0.160622 -0.69378 0.702046
vertex 0 -0.850651 0.525731
vertex 0.160622 -0.69378 0.702046
endloop
endfacet
facet normal 0 -0.983104 0.183046
outer loop
vertex 0 -1 0
vertex 0.16246 -0.951057 0.262866
vertex -0.16246 -0.951057 0.262866
endloop
endfacet
facet normal 0.155708 -0.886871 0.434988
outer loop
vertex 0.309017 -0.809017 0.5
vertex 0 -0.850651 0.525731
vertex 0.16246 -0.951057 0.262866
endloop
endfacet
facet normal -0.155708 -0.886871 0.434988
outer loop
vertex -0.309017 -0.809017 0.5
vertex -0.16246 -0.951057 0.262866
vertex 0 -0.850651 0.525731
endloop
endfacet
facet normal 0 -0.934172 0.356822
outer loop
vertex 0.16246 -0.951057 0.262866
vertex 0 -0.850651 0.525731
vertex -0.16246 -0.951057 0.262866
endloop
endfacet
facet normal -0.401344 -0.910482 -0.0997285
outer loop
vertex -0.525731 -0.850651 0
vertex -0.433889 -0.862668 -0.259892
vertex -0.273267 -0.961938 0
endloop
endfacet
facet normal -0.293384 -0.889128 -0.351251
outer loop
vertex -0.309017 -0.809017 -0.5
vertex -0.16246 -0.951057 -0.262866
vertex -0.433889 -0.862668 -0.259892
endloop
endfacet
facet normal -0.137279 -0.985606 -0.0986689
outer loop
vertex 0 -1 0
vertex -0.273267 -0.961938 0
vertex -0.16246 -0.951057 -0.262866
endloop
endfacet
facet normal -0.306893 -0.936773 -0.168145
outer loop
vertex -0.433889 -0.862668 -0.259892
vertex -0.16246 -0.951057 -0.262866
vertex -0.273267 -0.961938 0
endloop
endfacet
facet normal 0 -0.662437 -0.749118
outer loop
vertex 0 -0.525731 -0.850651
vertex 0.160622 -0.69378 -0.702046
vertex -0.160622 -0.69378 -0.702046
endloop
endfacet
facet normal 0.156105 -0.804285 -0.573374
outer loop
vertex 0.309017 -0.809017 -0.5
vertex 0 -0.850651 -0.525731
vertex 0.160622 -0.69378 -0.702046
endloop
endfacet
facet normal -0.156105 -0.804285 -0.573374
outer loop
vertex -0.309017 -0.809017 -0.5
vertex -0.160622 -0.69378 -0.702046
vertex 0 -0.850651 -0.525731
endloop
endfacet
facet normal -0 -0.747103 -0.664708
outer loop
vertex 0.160622 -0.69378 -0.702046
vertex 0 -0.850651 -0.525731
vertex -0.160622 -0.69378 -0.702046
endloop
endfacet
facet normal 0.401344 -0.910482 -0.0997285
outer loop
vertex 0.525731 -0.850651 0
vertex 0.273267 -0.961938 0
vertex 0.433889 -0.862668 -0.259892
endloop
endfacet
facet normal 0.137279 -0.985606 -0.0986689
outer loop
vertex 0 -1 0
vertex 0.16246 -0.951057 -0.262866
vertex 0.273267 -0.961938 0
endloop
endfacet
facet normal 0.293384 -0.889128 -0.351251
outer loop
vertex 0.309017 -0.809017 -0.5
vertex 0.433889 -0.862668 -0.259892
vertex 0.16246 -0.951057 -0.262866
endloop
endfacet
facet normal 0.306893 -0.936773 -0.168145
outer loop
vertex 0.273267 -0.961938 0
vertex 0.16246 -0.951057 -0.262866
vertex 0.433889 -0.862668 -0.259892
endloop
endfacet
facet normal -0.155708 -0.886871 -0.434988
outer loop
vertex -0.309017 -0.809017 -0.5
vertex 0 -0.850651 -0.525731
vertex -0.16246 -0.951057 -0.262866
endloop
endfacet
facet normal 0.155708 -0.886871 -0.434988
outer loop
vertex 0.309017 -0.809017 -0.5
vertex 0.16246 -0.951057 -0.262866
vertex 0 -0.850651 -0.525731
endloop
endfacet
facet normal 0 -0.983104 -0.183046
outer loop
vertex 0 -1 0
vertex -0.16246 -0.951057 -0.262866
vertex 0.16246 -0.951057 -0.262866
endloop
endfacet
facet normal 0 -0.934172 -0.356822
outer loop
vertex 0 -0.850651 -0.525731
vertex 0.16246 -0.951057 -0.262866
vertex -0.16246 -0.951057 -0.262866
endloop
endfacet
endsolid stlFromUG4
